<svg width="500" height="500" viewBox="0 0 500 500" fill="none" xmlns="http://www.w3.org/2000/svg">
<path d="M458.164 383.203L258.75 496.094V408.164L382.813 339.844L458.164 383.203ZM471.836 370.859V134.961L398.867 177.148V328.75L471.797 370.82L471.836 370.859ZM41.8359 383.203L241.055 496.016V408.164L116.953 339.844L41.8359 383.203ZM28.1641 370.859V134.961L101.133 177.148V328.75L28.1641 370.859ZM36.7187 119.687L241.25 3.90625V88.9063L110.195 160.977L109.141 161.563L36.7187 119.687ZM463.203 119.687L258.75 3.90625V88.9063L389.805 160.938L390.859 161.523L463.281 119.687H463.203Z" fill="#8ED6FB"/>
<path d="M241.25 388.164L118.633 320.703V187.187L241.25 257.813V388.164ZM258.75 388.164L381.367 320.781V187.187L258.75 257.813V388.164ZM126.953 171.875L250 104.141L373.047 171.875L250 242.812L126.953 171.875Z" fill="#1C78C0"/>
</svg>
